#!OML:ASF H:\Terrain\Patient Classification 1\Walking\steve\steve.ASF
:FULLY-SPECIFIED
:DEGREES


166
root 8.18634 15.9696 -2.28996 8.30637 4.36656 5.79234
lowerback 1.17525 -1.29019 -4.66782
upperback -2.95389 -1.87485 -0.275471
thorax -3.56829 -0.805707 2.40745
lowerneck -9.53288 -0.350695 -1.63292
upperneck 10.8657 -0.564416 2.64729
head 4.83622 -0.174436 1.04733
rclavicle 1.36913e-014 -1.35174e-014
rhumerus -95.1824 -31.9846 1.55886
rradius 13.2877
rwrist 59.9244
rhand -18.6458 -35.0615
rfingers 7.12502
rthumb 7.647 -64.9033
lclavicle 1.36913e-014 -1.35174e-014
lhumerus -17.1724 -11.1008 86.2517
lradius 53.1341
lwrist 25.0725
lhand -26.4098 -16.2599
lfingers 7.12502
lthumb 0.149983 13.7198
rfemur -45.7677 -0.917652 16.1361
rtibia 22.9292
rfoot -13.6201 4.77351
rtoes -8.65876
lfemur 17.3671 0.143812 -28.12
ltibia -6.04305e-014
lfoot -6.33364 -6.71612
ltoes 3.69628
167
root 8.19448 15.9533 -2.00907 8.29661 4.74319 6.39149
lowerback 1.22002 -1.5222 -5.15364
upperback -2.97779 -2.2025 -0.258913
thorax -3.57808 -0.95418 2.70979
lowerneck -9.49572 -0.289643 -1.65665
upperneck 10.8859 -0.429148 2.24416
head 4.83246 -0.135083 0.935592
rclavicle 2.1096e-014 -4.37326e-015
rhumerus -95.8131 -31.5824 3.41067
rradius 13.2681
rwrist 60.7087
rhand -17.6257 -34.8913
rfingers 7.12502
rthumb 8.63155 -64.6948
lclavicle 2.1096e-014 -4.37326e-015
lhumerus -17.0067 -11.2805 86.0668
lradius 54.6076
lwrist 25.1727
lhand -26.4938 -17.1747
lfingers 7.12502
lthumb 0.0687931 12.805
rfemur -46.0592 -1.24814 15.4299
rtibia 23.3015
rfoot -13.9948 5.36176
rtoes -10.1898
lfemur 18.4474 -0.501126 -28.7321
ltibia 6.36111e-015
lfoot -5.8641 -6.48637
ltoes 2.09281
168
root 8.19214 15.9196 -1.73359 8.28464 4.81158 6.12517
lowerback 1.18628 -1.57575 -4.90408
upperback -2.88174 -2.25309 0.00614022
thorax -3.45237 -0.987676 2.843
lowerneck -10.5915 -0.519294 -1.54551
upperneck 11.5004 -0.658606 1.54017
head 5.20917 -0.283349 0.682764
rclavicle -1.22004e-014 3.97569e-015
rhumerus -95.5811 -31.5059 3.44957
rradius 13.3927
rwrist 59.7071
rhand -17.3949 -35.2554
rfingers 7.12502
rthumb 8.85431 -65.0496
lclavicle -1.22004e-014 3.97569e-015
lhumerus -16.6282 -11.4231 85.9633
lradius 55.948
lwrist 25.1401
lhand -26.9933 -17.7619
lfingers 7.12502
lthumb -0.413647 12.2174
rfemur -46.3533 -0.778947 15.5422
rtibia 24.0116
rfoot -14.389 5.84004
rtoes -9.94638
lfemur 19.4872 -0.759989 -28.3973
ltibia 2.54444e-014
lfoot -4.96398 -6.06229
ltoes 0.32005
169
root 8.18887 15.8704 -1.44948 8.07674 4.91274 5.94169
lowerback 1.26664 -1.55978 -4.52236
upperback -2.73902 -2.21834 0.0808773
thorax -3.36173 -0.984414 2.70535
lowerneck -12.5038 -0.76627 -0.764766
upperneck 12.9198 -0.932315 0.250067
head 5.97217 -0.470646 0.122688
rclavicle 2.41026e-015 -1.59028e-015
rhumerus -94.9254 -31.3322 2.2685
rradius 13.3507
rwrist 57.7174
rhand -17.7154 -35.7413
rfingers 7.12502
rthumb 8.545 -65.5484
lclavicle 2.41026e-015 -1.59028e-015
lhumerus -16.3766 -11.3077 85.8644
lradius 57.1671
lwrist 24.9393
lhand -27.2523 -18.2929
lfingers 7.12502
lthumb -0.663737 11.6858
rfemur -46.0491 -0.257302 15.5296
rtibia 24.6378
rfoot -14.5392 6.51401
rtoes -6.11966
lfemur 20.7865 -1.03644 -28.14
ltibia 3.18055e-015
lfoot -4.13 -5.59989
ltoes -3.04089
170
root 8.1928 15.8138 -1.16393 7.77022 4.79758 6.03772
lowerback 1.60166 -1.52312 -4.35329
upperback -2.78314 -2.18393 0.0394826
thorax -3.60681 -0.96572 2.57872
lowerneck -11.6864 -0.545387 -0.987009
upperneck 12.298 -0.627341 0.442179
head 5.63753 -0.318838 0.248621
rclavicle 1.30452e-014 -1.11319e-014
rhumerus -94.3119 -30.9055 1.30786
rradius 13.1943
rwrist 56.6132
rhand -17.7625 -36.0518
rfingers 7.12502
rthumb 8.49958 -65.8608
lclavicle 1.30452e-014 -1.11319e-014
lhumerus -16.694 -11.1424 85.7035
lradius 58.391
lwrist 25.1045
lhand -27.1776 -18.7694
lfingers 7.12502
lthumb -0.591613 11.2095
rfemur -45.4976 0.347742 15.2413
rtibia 25.2692
rfoot -14.3017 6.85286
rtoes -3.23655
lfemur 22.1323 -1.11866 -28.2159
ltibia -4.13472e-014
lfoot -2.8006 -5.28286
ltoes -1.59282
171
root 8.20525 15.768 -0.878943 7.59425 4.52065 5.99725
lowerback 1.85157 -1.46994 -4.02348
upperback -2.86003 -2.11398 0.0804402
thorax -3.84229 -0.933079 2.4431
lowerneck -11.3191 -0.336895 -1.36466
upperneck 12.0457 -0.336579 0.816443
head 5.49546 -0.167399 0.451827
rclavicle -3.25261e-014 8.74653e-015
rhumerus -94.5429 -30.8334 2.09074
rradius 13.1278
rwrist 57.1476
rhand -17.4398 -36.0609
rfingers 7.12502
rthumb 8.81094 -65.857
lclavicle -3.25261e-014 8.74653e-015
lhumerus -17.0474 -11.3054 85.5117
lradius 59.399
lwrist 25.4823
lhand -27.9486 -19.1944
lfingers 7.12502
lthumb -1.33627 10.7812
rfemur -45.0754 0.417693 15.5984
rtibia 26.113
rfoot -13.0613 7.04865
rtoes -4.37625
lfemur 23.2705 -1.03868 -28.2007
ltibia -2.8625e-014
lfoot -1.03949 -4.73836
ltoes 0.388338
